<svg width="235.773" height="224" xmlns="http://www.w3.org/2000/svg" viewBox="132.114 -37 235.773 224" style="background-color:transparent" preserveAspectRatio="xMidYMid"><defs><filter id="editing-hole" x="-100%" y="-100%" width="300%" height="300%"><feFlood flood-color="#000" result="black"/><feMorphology operator="dilate" radius="2" in="SourceGraphic" result="erode"/><feGaussianBlur in="erode" stdDeviation="4" result="blur"/><feOffset in="blur" dx="2" dy="2" result="offset"/><feComposite operator="atop" in="offset" in2="black" result="merge"/><feComposite operator="in" in="merge" in2="SourceGraphic" result="inner-shadow"/></filter></defs><g filter="url(#editing-hole)"><path d="M198.64 104.52q.36 0 .36.72t-1.68 2.4l-1.2 1.8q-3.24 4.92-4.74 5.76-1.5.84-2.4.84-.9 0-2.76-.42-1.86-.42-1.92-.9-.06-.48-.06-2.04t2.28-7.5q2.28-5.94 5.28-11.7 5.52-10.8 11.04-20.88 1.08-2.04 1.08-3.18 0-1.14-.36-1.74.72-3.48 5.94-8.88 5.22-5.4 9.54-5.4 1.92 0 4.68 1.5t2.4 3.9q-.84-.6-1.56-.6-5.04 0-12.6 9.84-12.6 16.32-21.36 37.44-.96 2.52-.96 3.42v1.14q.48 1.2 1.98.72t2.82-2.16q3.12-4.08 4.2-4.08Zm45.72-51.72q.96-1.56 2.88-3.6-5.28-.12-15.84-.96-13.08-1.08-17.88-1.08-4.8 0-13.32.84-11.4 1.56-19.62 6.3t-9.78 11.94q-.24.72-.24 1.74t.66 2.46q.66 1.44 1.62 2.28.96.84 2.94 2.04 1.98 1.2 2.64 1.74.66.54.24.9-.42.36-.84.36t-.9-.12q-4.08-1.2-6.9-4.5-2.82-3.3-2.82-5.52 0-2.22.6-3.78 0-1.32.12-1.92 1.8-8.52 10.92-13.2 10.92-5.64 26.88-5.64 9.72 0 25.5 2.16t17.58 2.16q3.24-3.6 4.92-3.72.6-.12 1.68-.12t1.92.78q.84.78.84 1.62 0 .84-.72 1.68t-2.94 2.46q-2.22 1.62-3.54 2.94-6.24 6.24-6.24 10.92 0 2.04.84 3.3.84 1.26-.12 1.8t-2.04-.78q-1.2-.96-1.2-6.12t2.16-9.36Zm-8.28 45.48q2.16-4.44 2.16-6.84 0-2.4-.54-3.78t.48-2.34q1.02-.96 2.58-.72 2.4.6 2.4 5.4 0 4.8-5.64 12.6.12 3.24 3.36 3.24 3.24 0 9.84-6.96 3.12-3.6 3.9-4.68.78-1.08 1.38-.78.6.3.6.54 0 1.2-4.32 6.24-6.84 8.4-12.12 8.4-3.48 0-4.92-3-2.4 2.52-4.68 4.68-4.68 3.96-10.44 3.96-3.24 0-5.4-1.56-4.2-2.52-4.2-9 0-7.08 4.8-14.4 2.76-4.32 6.48-7.56 5.88-5.16 11.16-5.16 1.32 0 2.52.36 3.6 1.2 3.6 4.56 0 2.76-1.44 2.76-.6-.24-.6-1.8 0-2.16-2.4-2.16-4.2 0-10.8 7.68-6.6 7.68-7.92 15.48-.24 1.32-.24 2.94 0 1.62 1.08 3.72t4.02 2.1q2.94 0 6.42-2.64t6.24-6.72l-.36-.72q-.48-1.92.48-3.12.96-1.2 2.52-.72Zm50.64-20.88q2.76 0 2.76 2.94t-2.76 8.1q-2.76 5.16-4.08 8.4-2.28 5.52-2.28 8.82 0 3.3.96 4.38 1.8 1.92 4.92.18t8.7-6.72q5.58-4.98 8.94-9.78.48-.6 1.14-.3.66.3.66.6t-.24.66q-1.8 3.24-6.48 8.28-4.68 5.04-9 8.1-4.32 3.06-8.52 3.06-4.08-.12-5.76-1.86-1.68-1.74-1.68-4.38 0-2.64.48-5.1.48-2.46 1.8-5.7 2.16-5.16 3.78-8.04 1.62-2.88 1.62-3.78 0-.9-.96-.9-1.92 0-7.32 4.68-3.72 3.48-10.98 13.14t-8.22 10.26q-4.32 2.16-5.4 2.16t-1.08-.36q0-.36.24-1.02t2.34-6.54q2.1-5.88 4.56-12.9 2.46-7.02 3-8.46.54-1.44.72-2.46.18-1.02.42-1.74t.9-1.62q.66-.9 1.74-.96 1.08-.06 2.76.24 1.68.3 1.68 1.5 0 .84-1.32 3.66-1.32 2.82-7.56 19.38 4.32-5.28 10.92-12.18 6.6-6.9 11.16-10.5 4.56-3.24 7.44-3.24Zm27.24.84q3 0 3.6 1.92.24 1.08-.3 2.1t-.78 1.62q-.24.6-.36.96-.6 1.2-1.2 2.28-6.84 13.68-7.2 17.4-.12 1.08-.12 2.76 0 1.68.96 2.76 1.68 1.92 4.8.24t8.7-6.72q5.58-5.04 9.06-9.84.48-.6 1.08-.3.6.3.6.6t-.24.66q-1.8 3.24-6.48 8.28-7.68 8.28-12.84 10.2-3 1.08-5.04 1.08-4.8 0-6.36-4.56-.24-.84-.24-2.04 0-4.2 3.84-12.72-.6 1.32-4.68 6-1.08 1.2-1.68 0-.12-.24-.12-.66 0-.42.48-1.02 5.88-7.32 9.24-12.36-.24-.6.24-1.56 2.4-6.72 4.2-7.08h.84Zm9.48-15.96-.96 3.84q0 1.08-1.56 3.48t-2.4 2.4q-5.16 0-5.16-2.52 0-.48 5.16-4.44l2.04-1.56q1.92-1.68 2.4-1.68t.48.48Z" fill="#ccc"/></g><style></style></svg>